<svg width="15" height="16" viewBox="0 0 15 16" fill="none" xmlns="http://www.w3.org/2000/svg">
<path d="M3 14.125V3.25C3 2.85156 2.64844 2.5 2.25 2.5C1.82812 2.5 1.5 2.85156 1.5 3.25V14.125C1.5 14.3359 1.66406 14.5 1.875 14.5H2.625C2.8125 14.5 3 14.3359 3 14.125ZM12.6562 2.5C13.1016 2.5 13.5 2.78125 13.5 3.22656V10.3047C13.5 10.5859 13.3125 10.8438 12.9844 10.9609C11.9766 11.3594 11.1328 11.5 10.3828 11.5C8.64844 11.5 7.45312 10.7734 5.71875 10.7734C5.13281 10.7734 4.5 10.8672 3.75 11.1016V2.875C4.57031 2.61719 5.25 2.52344 5.83594 2.52344C7.45312 2.52344 8.27344 3.27344 9.67969 3.27344C10.3359 3.27344 11.1328 3.10938 12.1875 2.61719C12.3516 2.54688 12.4922 2.5 12.6562 2.5Z" fill="#D1D5DB"/>
</svg>
