<svg width="58" height="53" viewBox="0 0 58 53" fill="none" xmlns="http://www.w3.org/2000/svg">
<g id="folder-not started">
<path id="Vector" d="M52.3549 41.8357L16.5083 9.14286H24.134L28.9375 13.5238H48.1518C49.4728 13.5238 50.604 13.9531 51.5455 14.8118C52.4854 15.669 52.9554 16.7 52.9554 17.9048V39.8095C52.9554 40.2111 52.9058 40.5762 52.8065 40.9048C52.7056 41.2333 52.5551 41.5437 52.3549 41.8357ZM49.2927 51.419L41.3668 44.1905H9.72325C8.40227 44.1905 7.27183 43.7619 6.33193 42.9047C5.39043 42.046 4.91968 41.0143 4.91968 39.8095V13.5238C4.91968 12.3191 5.39043 11.2881 6.33193 10.4309C7.27183 9.5722 8.40227 9.14286 9.72325 9.14286V15.2762L1.79736 8.04762L5.15986 4.98096L52.7152 48.3524L49.2927 51.419Z" fill="url(#paint0_linear_843_2484)"/>
</g>
<defs>
<linearGradient id="paint0_linear_843_2484" x1="54.0745" y1="-0.178832" x2="0.370958" y2="1.50036" gradientUnits="userSpaceOnUse">
<stop stop-color="#D65BDB"/>
<stop offset="1" stop-color="#F97ABE"/>
</linearGradient>
</defs>
</svg>
