<svg width="58" height="53" viewBox="0 0 58 53" fill="none" xmlns="http://www.w3.org/2000/svg">
<g id="folder-in progress">
<path id="Vector" d="M7.32145 44.1905C6.00047 44.1905 4.87003 43.7619 3.93013 42.9047C2.98863 42.046 2.51788 41.0143 2.51788 39.8095V13.5238C2.51788 12.319 2.98863 11.2881 3.93013 10.4309C4.87003 9.57219 6.00047 9.14285 7.32145 9.14285H21.7322L26.5357 13.5238H45.75C47.071 13.5238 48.2022 13.9531 49.1437 14.8118C50.0836 15.669 50.5536 16.7 50.5536 17.9048V39.8095C50.5536 41.0143 50.0836 42.046 49.1437 42.9047C48.2022 43.7619 47.071 44.1905 45.75 44.1905H7.32145Z" fill="url(#paint0_linear_843_7448)"/>
<path id="Vector_2" d="M26.5357 19C32.505 19 37.3438 23.413 37.3438 28.8571C37.3438 34.3012 32.505 38.7143 26.5357 38.7143C20.5664 38.7143 15.7277 34.3012 15.7277 28.8571C15.7277 23.413 20.5664 19 26.5357 19ZM26.5357 20.9714C24.2426 20.9714 22.0433 21.8022 20.4218 23.2811C18.8003 24.76 17.8893 26.7657 17.8893 28.8571C17.8893 30.9486 18.8003 32.9543 20.4218 34.4332C22.0433 35.912 24.2426 36.7429 26.5357 36.7429C28.8289 36.7429 31.0282 35.912 32.6497 34.4332C34.2712 32.9543 35.1822 30.9486 35.1822 28.8571C35.1822 26.7657 34.2712 24.76 32.6497 23.2811C31.0282 21.8022 28.8289 20.9714 26.5357 20.9714ZM26.5357 22.9429C26.8005 22.9429 27.056 23.0315 27.2538 23.192C27.4516 23.3524 27.578 23.5735 27.609 23.8132L27.6165 23.9286V28.4491L30.5423 31.1174C30.7361 31.2948 30.8486 31.5328 30.857 31.7831C30.8654 32.0334 30.769 32.2773 30.5874 32.4651C30.4058 32.653 30.1526 32.7707 29.8792 32.7945C29.6059 32.8182 29.3328 32.7462 29.1156 32.593L29.014 32.5112L25.7716 29.554C25.6036 29.4007 25.4957 29.2012 25.4647 28.9863L25.4549 28.8571V23.9286C25.4549 23.6671 25.5688 23.4164 25.7715 23.2316C25.9742 23.0467 26.2491 22.9429 26.5357 22.9429Z" fill="white"/>
</g>
<defs>
<linearGradient id="paint0_linear_843_7448" x1="51.6044" y1="5.24867" x2="1.2055" y2="7.20926" gradientUnits="userSpaceOnUse">
<stop stop-color="#D65BDB"/>
<stop offset="1" stop-color="#F97ABE"/>
</linearGradient>
</defs>
</svg>
