<svg width="58" height="53" viewBox="0 0 58 53" fill="none" xmlns="http://www.w3.org/2000/svg">
<g id="folder-done">
<path id="Vector" d="M9.72322 44.1905C8.40223 44.1905 7.27179 43.7619 6.3319 42.9047C5.3904 42.046 4.91965 41.0143 4.91965 39.8095V13.5238C4.91965 12.319 5.3904 11.2881 6.3319 10.4309C7.27179 9.57219 8.40223 9.14285 9.72322 9.14285H24.1339L28.9375 13.5238H48.1518C49.4728 13.5238 50.604 13.9531 51.5455 14.8118C52.4854 15.669 52.9554 16.7 52.9554 17.9048V39.8095C52.9554 41.0143 52.4854 42.046 51.5455 42.9047C50.604 43.7619 49.4728 44.1905 48.1518 44.1905H9.72322Z" fill="url(#paint0_linear_843_2494)"/>
<path id="Vector_2" d="M25.491 31.9906L35.6582 22.7179C35.9741 22.4298 36.3762 22.2857 36.8645 22.2857C37.3527 22.2857 37.7548 22.4298 38.0707 22.7179C38.3867 23.006 38.5446 23.3728 38.5446 23.8181C38.5446 24.2634 38.3867 24.6301 38.0707 24.9182L26.6973 35.291C26.3526 35.6054 25.9505 35.7625 25.491 35.7625C25.0315 35.7625 24.6294 35.6054 24.2847 35.291L19.8043 31.2048C19.4883 30.9166 19.3304 30.5499 19.3304 30.1046C19.3304 29.6593 19.4883 29.2926 19.8043 29.0045C20.1202 28.7163 20.5223 28.5723 21.0105 28.5723C21.4988 28.5723 21.9009 28.7163 22.2168 29.0045L25.491 31.9906Z" fill="white"/>
</g>
<defs>
<linearGradient id="paint0_linear_843_2494" x1="54.0061" y1="5.24867" x2="3.60727" y2="7.20926" gradientUnits="userSpaceOnUse">
<stop stop-color="#D65BDB"/>
<stop offset="1" stop-color="#F97ABE"/>
</linearGradient>
</defs>
</svg>
