<svg width="58" height="53" viewBox="0 0 58 53" fill="none" xmlns="http://www.w3.org/2000/svg">
<g id="folder-new">
<path id="Vector" d="M9.72325 44.1905C8.40227 44.1905 7.27183 43.7619 6.33193 42.9047C5.39043 42.046 4.91968 41.0143 4.91968 39.8095V13.5238C4.91968 12.319 5.39043 11.2881 6.33193 10.4309C7.27183 9.57219 8.40227 9.14285 9.72325 9.14285H22.1525C22.793 9.14285 23.4038 9.25238 23.9851 9.47142C24.5647 9.69047 25.0747 10.0008 25.515 10.4024L28.9375 13.5238H48.1518C49.4728 13.5238 50.604 13.9531 51.5455 14.8118C52.4854 15.669 52.9554 16.7 52.9554 17.9048H14.5268C13.2058 17.9048 12.0754 18.3334 11.1355 19.1906C10.194 20.0492 9.72325 21.0809 9.72325 22.2857V39.8095L14.4668 25.4071C14.787 24.4579 15.3779 23.7 16.2393 23.1334C17.0991 22.5683 18.0494 22.2857 19.0902 22.2857H50.0732C51.7145 22.2857 53.0058 22.8786 53.9473 24.0644C54.8872 25.2516 55.137 26.5389 54.6967 27.9262L50.3735 41.069C50.0532 42.0182 49.4632 42.7762 48.6034 43.3428C47.7419 43.9079 46.7908 44.1905 45.75 44.1905H9.72325Z" fill="url(#paint0_linear_843_2474)"/>
</g>
<defs>
<linearGradient id="paint0_linear_843_2474" x1="56.0009" y1="5.24867" x2="3.56054" y2="7.37157" gradientUnits="userSpaceOnUse">
<stop stop-color="#D65BDB"/>
<stop offset="1" stop-color="#F97ABE"/>
</linearGradient>
</defs>
</svg>
