<svg width="36" height="36" viewBox="0 0 36 36" fill="none" xmlns="http://www.w3.org/2000/svg">
<path d="M10.5 28.5C7.96875 28.5 6 26.4844 6 24V12C6 9.51562 7.96875 7.5 10.5 7.5H13.5C14.2969 7.5 15 8.20312 15 9C15 9.84375 14.2969 10.5 13.5 10.5H10.5C9.65625 10.5 9 11.2031 9 12V24C9 24.8438 9.65625 25.5 10.5 25.5H13.5C14.2969 25.5 15 26.2031 15 27C15 27.8438 14.2969 28.5 13.5 28.5H10.5ZM29.625 17.2031C30.0938 17.625 30.0938 18.4219 29.625 18.7969L22.875 25.1719C22.5469 25.5 22.0781 25.5469 21.6562 25.4062C21.2344 25.2188 21 24.7969 21 24.375V21H15C14.1562 21 13.5 20.3438 13.5 19.5V16.5C13.5 15.7031 14.1562 15 15 15H21V11.625C21 11.2031 21.2344 10.7812 21.6562 10.5938C22.0781 10.4531 22.5469 10.5 22.875 10.8281L29.625 17.2031Z" fill="white"/>
</svg>
