<svg width="36" height="36" viewBox="0 0 36 36" fill="none" xmlns="http://www.w3.org/2000/svg">
<path d="M3 9C2.175 9 1.5 9.675 1.5 10.5V28.5C1.5 30.15 2.85 31.5 4.5 31.5H28.5C29.325 31.5 30 30.825 30 30C30 29.175 29.325 28.5 28.5 28.5H4.5V10.5C4.5 9.675 3.825 9 3 9Z" fill="white"/>
<path d="M31.5 6H21L18.885 3.885C18.315 3.315 17.55 3 16.755 3H10.5C8.85 3 7.515 4.35 7.515 6L7.5 22.5C7.5 24.15 8.85 25.5 10.5 25.5H31.5C33.15 25.5 34.5 24.15 34.5 22.5V9C34.5 7.35 33.15 6 31.5 6Z" fill="white"/>
</svg>
