<svg width="36" height="36" viewBox="0 0 36 36" fill="none" xmlns="http://www.w3.org/2000/svg">
<path d="M30 7.5C30.7969 7.5 31.5 8.20312 31.5 9V15C31.5 15.8438 30.7969 16.5 30 16.5H19.5C18.6562 16.5 18 15.8438 18 15V7.5C18 6.70312 18.6562 6 19.5 6H23.25L24.75 7.5H30ZM30 21C30.7969 21 31.5 21.7031 31.5 22.5V28.5C31.5 29.3438 30.7969 30 30 30H19.5C18.6562 30 18 29.3438 18 28.5V21C18 20.2031 18.6562 19.5 19.5 19.5H23.25L24.75 21H30ZM7.5 6.75V10.5H16.5V13.5H7.5V24H16.5V27H6C5.15625 27 4.5 26.3438 4.5 25.5V6.75C4.5 6.375 4.82812 6 5.25 6H6.75C7.125 6 7.5 6.375 7.5 6.75Z" fill="url(#paint0_linear_839_14151)"/>
<defs>
<linearGradient id="paint0_linear_839_14151" x1="30.525" y1="3.33333" x2="5.32649" y2="4.04854" gradientUnits="userSpaceOnUse">
<stop stop-color="#D65BDB"/>
<stop offset="1" stop-color="#F97ABE"/>
</linearGradient>
</defs>
</svg>
