<svg width="36" height="36" viewBox="0 0 36 36" fill="none" xmlns="http://www.w3.org/2000/svg">
<path fill-rule="evenodd" clip-rule="evenodd" d="M25.3176 4.73283C27.7983 3.92656 30.4626 5.28408 31.2676 7.76396C32.0735 10.2443 30.716 12.9081 28.2361 13.7143C25.7561 14.5201 23.0923 13.1627 22.2861 10.6824C21.4806 8.20245 22.8377 5.53827 25.3176 4.73283ZM4.73294 7.7639C5.53838 5.28402 8.20174 3.9265 10.683 4.73236C13.1628 5.5378 14.5199 8.20239 13.7137 10.6824C12.9082 13.1627 10.244 14.5201 7.76448 13.7139C5.28337 12.9081 3.92586 10.2442 4.73294 7.7639ZM13.0426 29.552C11.5093 31.6618 8.55642 32.1294 6.44708 30.5961C4.33692 29.0635 3.86927 26.1107 5.40218 24.001C6.93479 21.8912 9.88754 21.4235 11.9973 22.9561C14.1071 24.489 14.5752 27.4423 13.0426 29.552ZM22.9555 29.5522C21.4233 27.4425 21.891 24.4892 24.0008 22.9563C26.1106 21.4233 29.0629 21.8914 30.5959 24.0008C32.1293 26.1105 31.6612 29.0637 29.5514 30.5967C27.4417 32.1296 24.4888 31.662 22.9555 29.5522Z" fill="white"/>
<path d="M25.3176 4.73283L25.5107 5.32726L25.5108 5.32722L25.3176 4.73283ZM31.2676 7.76396L30.6732 7.95694L30.6732 7.95709L31.2676 7.76396ZM28.2361 13.7143L28.4292 14.3087L28.4293 14.3087L28.2361 13.7143ZM22.2861 10.6824L21.6916 10.8755L21.6917 10.8756L22.2861 10.6824ZM4.73294 7.7639L5.32726 7.9573L5.32737 7.95697L4.73294 7.7639ZM10.683 4.73236L10.876 4.13793L10.876 4.13792L10.683 4.73236ZM13.7137 10.6824L13.1193 10.4891L13.1192 10.4893L13.7137 10.6824ZM7.76448 13.7139L7.95773 13.1195L7.95755 13.1195L7.76448 13.7139ZM13.0426 29.552L13.5482 29.9195L13.5483 29.9193L13.0426 29.552ZM6.44708 30.5961L6.81457 30.0905L6.81437 30.0904L6.44708 30.5961ZM5.40218 24.001L5.90781 24.3684L5.90784 24.3683L5.40218 24.001ZM11.9973 22.9561L12.3647 22.4505L12.3646 22.4504L11.9973 22.9561ZM22.9555 29.5522L22.4498 29.9195L22.4499 29.9197L22.9555 29.5522ZM24.0008 22.9563L24.3682 23.4619L24.3682 23.4619L24.0008 22.9563ZM30.5959 24.0008L30.0904 24.3682V24.3682L30.5959 24.0008ZM29.5514 30.5967L29.9188 31.1023L29.9188 31.1023L29.5514 30.5967ZM25.5108 5.32722C27.6633 4.62763 29.9748 5.80561 30.6732 7.95694L31.8621 7.57098C30.9504 4.76255 27.9333 3.2255 25.1244 4.13843L25.5108 5.32722ZM30.6732 7.95709C31.3724 10.1091 30.1946 12.4204 28.0429 13.1199L28.4293 14.3087C31.2374 13.3958 32.7746 10.3794 31.8621 7.57083L30.6732 7.95709ZM28.0429 13.1199C25.8913 13.819 23.5801 12.6414 22.8805 10.4892L21.6917 10.8756C22.6046 13.6841 25.6209 15.2212 28.4292 14.3087L28.0429 13.1199ZM22.8805 10.4894C22.1816 8.33752 23.3593 6.02602 25.5107 5.32726L25.1246 4.13839C22.3162 5.05052 20.7796 8.06738 21.6916 10.8755L22.8805 10.4894ZM5.32737 7.95697C6.02615 5.80548 8.33687 4.62753 10.4899 5.32679L10.876 4.13792C8.06661 3.22548 5.05061 4.76256 4.1385 7.57084L5.32737 7.95697ZM10.4899 5.32679C12.6413 6.02554 13.8189 8.33736 13.1193 10.4891L14.3081 10.8756C15.221 8.06742 13.6844 5.05006 10.876 4.13793L10.4899 5.32679ZM13.1192 10.4893C12.4204 12.6413 10.1088 13.8189 7.95773 13.1195L7.57123 14.3083C10.3791 15.2212 13.396 13.684 14.3081 10.8754L13.1192 10.4893ZM7.95755 13.1195C5.80468 12.4202 4.62709 10.109 5.32726 7.9573L4.13861 7.57051C3.22462 10.3794 4.76207 13.3959 7.57141 14.3083L7.95755 13.1195ZM12.537 29.1846C11.2065 31.0152 8.64456 31.4208 6.81457 30.0905L6.07959 31.1016C8.46829 32.838 11.812 32.3083 13.5482 29.9195L12.537 29.1846ZM6.81437 30.0904C4.98356 28.7607 4.5778 26.1989 5.90781 24.3684L4.89656 23.6336C3.16074 26.0226 3.69028 29.3663 6.0798 31.1018L6.81437 30.0904ZM5.90784 24.3683C7.23756 22.5379 9.79945 22.132 11.63 23.4617L12.3646 22.4504C9.97563 20.715 6.63202 21.2446 4.89652 23.6337L5.90784 24.3683ZM11.6299 23.4617C13.4606 24.7918 13.8666 27.3542 12.5369 29.1847L13.5483 29.9193C15.2838 27.5303 14.7537 24.1862 12.3647 22.4505L11.6299 23.4617ZM23.4612 29.1849C22.1318 27.3544 22.5376 24.7919 24.3682 23.4619L23.6335 22.4507C21.2444 24.1865 20.7148 27.5305 22.4498 29.9195L23.4612 29.1849ZM24.3682 23.4619C26.1986 22.1319 28.7602 22.5379 30.0904 24.3682L31.1015 23.6333C29.3657 21.2449 26.0226 20.7147 23.6334 22.4507L24.3682 23.4619ZM30.0904 24.3682C31.4207 26.1986 31.0147 28.7609 29.1841 30.0911L29.9188 31.1023C32.3077 29.3665 32.8379 26.0224 31.1015 23.6333L30.0904 24.3682ZM29.1841 30.0911C27.3536 31.4211 24.7916 31.0154 23.4611 29.1848L22.4499 29.9197C24.1861 32.3085 27.5298 32.8382 29.9188 31.1023L29.1841 30.0911Z" fill="white"/>
</svg>
