<svg width="36" height="36" viewBox="0 0 36 36" fill="none" xmlns="http://www.w3.org/2000/svg">
<path fill-rule="evenodd" clip-rule="evenodd" d="M25.3176 4.73283C27.7983 3.92656 30.4626 5.28408 31.2676 7.76396C32.0735 10.2443 30.716 12.9081 28.2361 13.7143C25.7561 14.5201 23.0923 13.1627 22.2861 10.6824C21.4806 8.20245 22.8377 5.53827 25.3176 4.73283ZM4.73294 7.7639C5.53838 5.28402 8.20174 3.9265 10.683 4.73236C13.1628 5.5378 14.5199 8.20239 13.7137 10.6824C12.9082 13.1627 10.244 14.5201 7.76448 13.7139C5.28337 12.9081 3.92586 10.2442 4.73294 7.7639ZM13.0426 29.552C11.5093 31.6618 8.55642 32.1294 6.44708 30.5961C4.33692 29.0635 3.86927 26.1107 5.40218 24.001C6.93479 21.8912 9.88754 21.4235 11.9973 22.9561C14.1071 24.489 14.5752 27.4423 13.0426 29.552ZM22.9555 29.5522C21.4233 27.4425 21.891 24.4892 24.0008 22.9563C26.1106 21.4233 29.0629 21.8914 30.5959 24.0008C32.1293 26.1105 31.6612 29.0637 29.5514 30.5967C27.4417 32.1296 24.4888 31.662 22.9555 29.5522Z" fill="url(#paint0_linear_839_2991)"/>
<defs>
<linearGradient id="paint0_linear_839_2991" x1="32.0906" y1="1.50012" x2="3.74231" y2="2.30476" gradientUnits="userSpaceOnUse">
<stop stop-color="#F97ABE"/>
<stop offset="1" stop-color="#D65BDB"/>
</linearGradient>
<linearGradient id="paint1_linear_839_2991" x1="32.0906" y1="1.50012" x2="3.74231" y2="2.30476" gradientUnits="userSpaceOnUse">
<stop stop-color="#F97ABE"/>
<stop offset="1" stop-color="#D65BDB"/>
</linearGradient>
</defs>
</svg>