<svg width="106" height="84" viewBox="0 0 106 84" fill="none" xmlns="http://www.w3.org/2000/svg">
<path d="M0.5 58.5162H9.84879V59.9999H6.02024V70.88H4.32855V59.9999H0.5V58.5162Z" fill="white"/>
<path d="M19.4633 65.2457H13.3198V70.88H11.6281V58.5162H13.3198V63.7973H19.4633V58.5162H21.155V70.88H19.4633V65.2457Z" fill="white"/>
<path d="M24.3575 58.5162H31.8365V59.9646H26.0492V63.7267H31.0352V65.1397H26.0492V69.4317H31.8365V70.88H24.3575V58.5162Z" fill="white"/>
<path d="M35.25 64.6805C35.25 65.4223 35.3449 66.0994 35.5349 66.7117C35.7367 67.3122 36.0097 67.8303 36.354 68.266C36.7102 68.7016 37.1316 69.0372 37.6183 69.2727C38.105 69.5082 38.6393 69.626 39.221 69.626C39.8027 69.626 40.3072 69.5612 40.7346 69.4317C41.162 69.2904 41.5775 69.102 41.9811 68.8665L42.4975 70.2618C42.0583 70.4973 41.5537 70.6975 40.9839 70.8624C40.4259 71.0154 39.773 71.092 39.0251 71.092C38.206 71.092 37.4581 70.9448 36.7814 70.6504C36.1166 70.356 35.5408 69.938 35.0541 69.3964C34.5673 68.8429 34.1875 68.1776 33.9144 67.4005C33.6532 66.6116 33.5227 65.7284 33.5227 64.7511C33.5227 63.8091 33.6532 62.9437 33.9144 62.1547C34.1875 61.3658 34.5733 60.6887 35.0719 60.1235C35.5705 59.5466 36.17 59.0991 36.8704 58.7812C37.5827 58.4633 38.3722 58.3043 39.2388 58.3043C39.8442 58.3043 40.3844 58.3632 40.8592 58.4809C41.346 58.5869 41.803 58.74 42.2304 58.9401L41.714 60.3531C41.346 60.1765 40.9661 60.0352 40.5743 59.9292C40.1944 59.8233 39.7433 59.7703 39.221 59.7703C38.6511 59.7703 38.1229 59.8821 37.6361 60.1059C37.1494 60.3178 36.728 60.6357 36.3718 61.0596C36.0157 61.4835 35.7367 62.0016 35.5349 62.6139C35.3449 63.2145 35.25 63.9033 35.25 64.6805Z" fill="white"/>
<path d="M43.3834 70.4385L48.2626 58.5162H50.1145L54.9225 70.4385L53.3733 71.0566L51.9843 67.5241H46.2148L44.8258 71.0213L43.3834 70.4385ZM46.749 66.1111H51.4323L49.0995 60.1765L46.749 66.1111Z" fill="white"/>
<path d="M56.7027 58.5516C57.2013 58.4927 57.7355 58.4515 58.3053 58.4279C58.887 58.3926 59.4984 58.3749 60.1394 58.3749C60.9111 58.3749 61.5996 58.4691 62.2051 58.6575C62.8105 58.8459 63.321 59.105 63.7365 59.4347C64.152 59.7644 64.4666 60.1647 64.6803 60.6357C64.894 61.095 65.0008 61.5954 65.0008 62.1371C65.0008 62.7965 64.8702 63.3852 64.6091 63.9033C64.3598 64.4096 64.0036 64.8394 63.5406 65.1927C63.0895 65.5459 62.5434 65.8168 61.9024 66.0052C61.2613 66.1818 60.5549 66.2701 59.7833 66.2701C59.2847 66.2701 58.8217 66.2524 58.3943 66.2171V70.88H56.7027V58.5516ZM59.997 64.8748C61.0654 64.8748 61.8846 64.6451 62.4544 64.1859C63.0361 63.7149 63.3269 63.0791 63.3269 62.2784C63.3269 61.513 63.048 60.9066 62.49 60.4591C61.9439 60.0117 61.1485 59.7879 60.1038 59.7879C59.7833 59.7879 59.4806 59.7938 59.1957 59.8056C58.9107 59.8174 58.6436 59.835 58.3943 59.8586V64.7864C58.5843 64.81 58.8098 64.8335 59.071 64.8571C59.3441 64.8689 59.6527 64.8748 59.997 64.8748Z" fill="white"/>
<path d="M66.662 68.4249C67.0894 68.7782 67.5702 69.0667 68.1044 69.2904C68.6386 69.5141 69.2619 69.626 69.9742 69.626C70.8289 69.626 71.5056 69.4494 72.0042 69.0961C72.5028 68.7429 72.7521 68.266 72.7521 67.6654C72.7521 67.4182 72.7165 67.1886 72.6453 66.9766C72.574 66.7647 72.4316 66.5645 72.2179 66.3761C72.0161 66.1759 71.7252 65.9816 71.3453 65.7932C70.9773 65.593 70.4965 65.3811 69.9029 65.1574C69.2619 64.9101 68.7158 64.6687 68.2647 64.4332C67.8254 64.1859 67.4693 63.921 67.1963 63.6384C66.9232 63.344 66.7273 63.0261 66.6086 62.6846C66.4899 62.3313 66.4305 61.931 66.4305 61.4836C66.4305 61.0479 66.5196 60.6357 66.6976 60.2472C66.8876 59.8586 67.1606 59.523 67.5168 59.2404C67.8848 58.946 68.33 58.7164 68.8523 58.5516C69.3865 58.3867 69.992 58.3043 70.6687 58.3043C71.4047 58.3043 72.0636 58.3808 72.6453 58.5339C73.227 58.6752 73.8027 58.8813 74.3726 59.1521L73.7493 60.5828C73.3457 60.3473 72.8708 60.153 72.3247 59.9999C71.7905 59.835 71.2266 59.7526 70.633 59.7526C69.8495 59.7526 69.2322 59.9057 68.7811 60.2118C68.33 60.5062 68.1044 60.9007 68.1044 61.3952C68.1044 61.6307 68.1341 61.8427 68.1935 62.0311C68.2647 62.2077 68.3953 62.3843 68.5852 62.561C68.787 62.7258 69.0601 62.8966 69.4043 63.0732C69.7605 63.2498 70.2294 63.4441 70.8111 63.656C71.4997 63.9151 72.0814 64.18 72.5562 64.4509C73.0311 64.7217 73.411 65.0102 73.6959 65.3163C73.9808 65.6225 74.1826 65.9522 74.3013 66.3054C74.4319 66.6587 74.4972 67.0472 74.4972 67.4711C74.4972 68.0481 74.3844 68.5603 74.1589 69.0078C73.9333 69.4552 73.6187 69.8379 73.2151 70.1559C72.8233 70.462 72.3485 70.6975 71.7905 70.8624C71.2326 71.0154 70.6271 71.092 69.9742 71.092C69.1076 71.092 68.3181 70.9801 67.6058 70.7564C66.8935 70.5209 66.294 70.2147 65.8073 69.8379L66.662 68.4249Z" fill="white"/>
<path d="M84.351 58.5162H85.9893V66.1111C85.9893 66.8883 85.8765 67.5889 85.6509 68.213C85.4372 68.8253 85.1227 69.3493 84.7072 69.7849C84.3035 70.2088 83.8168 70.5327 83.247 70.7564C82.6771 70.9801 82.042 71.092 81.3416 71.092C79.8933 71.092 78.7595 70.674 77.9404 69.8379C77.1331 68.9901 76.7295 67.7714 76.7295 66.1818V58.5162H78.4212V65.9168C78.4212 67.1061 78.6586 68.0246 79.1335 68.6722C79.6202 69.3081 80.3563 69.626 81.3416 69.626C82.3507 69.626 83.1045 69.3139 83.6031 68.6899C84.1017 68.054 84.351 67.1297 84.351 65.9168V58.5162Z" fill="white"/>
<path d="M96.3339 70.88H88.9261V58.5162H90.6178V69.3787H96.3339V70.88Z" fill="white"/>
<path d="M98.021 58.5162H105.5V59.9646H99.7127V63.7267H104.699V65.1397H99.7127V69.4317H105.5V70.88H98.021V58.5162Z" fill="white"/>
<path d="M1.93952 83.7873V78.5385C2.42071 78.4649 3.02839 78.428 3.76256 78.428C5.14015 78.428 5.82894 78.9081 5.82894 79.8681V83.7873H1.93952ZM2.62419 83.2595H5.14427V79.9663C5.14427 79.7944 5.1154 79.6485 5.05766 79.5285C4.99991 79.4058 4.92705 79.3117 4.83906 79.2462C4.75382 79.1781 4.64108 79.1262 4.50085 79.0908C4.36061 79.0526 4.23 79.0294 4.10902 79.0212C3.98803 79.0103 3.8478 79.0049 3.68832 79.0049C3.35285 79.0049 3.04902 79.0158 2.7768 79.0376L2.62419 79.0499V83.2595Z" fill="white"/>
<path d="M7.15902 82.0036V78.5099H7.84369V81.3081L7.29925 82.0036H7.15902Z" fill="white"/>
<path d="M9.16964 83.7873V78.4894C9.81031 78.4485 10.418 78.428 10.9927 78.428C11.4821 78.428 11.8946 78.5058 12.23 78.6612C12.582 78.8249 12.824 79.0894 12.9559 79.4549C13.0247 79.6458 13.0591 79.8626 13.0591 80.1054V83.7873H12.3744V80.0972C12.3744 79.369 11.8822 79.0049 10.8978 79.0049L9.85431 79.0417V83.7873H9.16964Z" fill="white"/>
<path d="M14.4428 83.7873V78.5099H15.1274V83.7873H14.4428Z" fill="white"/>
<path d="M16.5317 83.7873V78.5099H17.2164V83.7873H16.5317Z" fill="white"/>
<path d="M18.5671 82.0036V78.5099H19.2518V81.3081L18.7073 82.0036H18.5671Z" fill="white"/>
<path d="M20.0952 79.0376V78.5099H23.9805V78.9762C23.414 79.1372 23.1308 79.5299 23.1308 80.1545V83.7873H22.4461V80.1545C22.4461 79.9935 22.4654 79.8463 22.5039 79.7126C22.5424 79.5763 22.5891 79.4699 22.6441 79.3935C22.7568 79.2353 22.8586 79.1331 22.9493 79.0867L23.0071 79.0581V79.0376H20.0952Z" fill="white"/>
<path d="M26.8345 83.7873V83.2268C27.0352 83.2541 27.1465 83.2677 27.1685 83.2677C27.5617 83.2677 27.7583 83.0359 27.7583 82.5722V79.0826L27.1768 79.1358V78.559C27.944 78.4717 28.6149 78.428 29.1896 78.428C29.679 78.428 30.0915 78.5058 30.4269 78.6612C30.7789 78.8249 31.0208 79.0894 31.1528 79.4549C31.2216 79.6458 31.2559 79.8626 31.2559 80.1054V83.7873H30.5671V80.0972C30.5671 79.369 30.0763 79.0049 29.0947 79.0049C28.9737 79.0049 28.7565 79.0131 28.443 79.0294V82.4781C28.443 82.9091 28.344 83.2445 28.1461 83.4845C27.9481 83.7245 27.6484 83.8445 27.2469 83.8445C27.1259 83.8445 26.9884 83.8254 26.8345 83.7873Z" fill="white"/>
<path d="M32.3963 78.5099H33.0892L33.3367 81.4595L33.8852 81.2795C34.3087 81.1431 34.552 80.764 34.6153 80.1422L34.7761 78.5099H35.4608L35.3247 79.8967C35.3055 80.0822 35.2807 80.2499 35.2505 80.3999C35.2202 80.5472 35.1707 80.7013 35.102 80.8622C35.0332 81.0231 34.9494 81.1636 34.8504 81.2836C34.7541 81.4036 34.6263 81.514 34.4668 81.6149C34.3073 81.7159 34.1231 81.7922 33.9141 81.844L33.3779 81.9872L33.4852 83.2595H34.7143C35.2752 83.2595 35.7413 83.0591 36.1125 82.6581C36.4864 82.2572 36.7119 81.6422 36.7889 80.8131L36.9993 78.514H37.6798L37.4777 80.8131C37.4502 81.1677 37.3938 81.4827 37.3086 81.7581C37.2234 82.0309 37.1354 82.2545 37.0446 82.4291C36.9539 82.6009 36.8329 82.7727 36.6817 82.9445C36.5332 83.1163 36.3655 83.2623 36.1785 83.3823C35.9915 83.5023 35.7619 83.6004 35.4897 83.6768C35.2202 83.7504 34.9246 83.7873 34.6029 83.7873H32.8376L32.3963 78.5099Z" fill="white"/>
<path d="M38.4283 83.8159L38.5273 83.1941C38.6428 83.2295 38.8311 83.2473 39.0924 83.2473C39.2848 83.2473 39.4897 83.1682 39.7069 83.01C39.9654 82.8163 40.1496 82.5572 40.2596 82.2327C40.3228 82.0445 40.3545 81.8399 40.3545 81.619V79.8885C40.3545 79.5585 40.2816 79.3212 40.1359 79.1767C40.0011 79.0431 39.7949 78.9762 39.5172 78.9762C39.3687 78.9762 39.201 79.0008 39.014 79.0499V78.514C39.234 78.4567 39.4801 78.428 39.7523 78.428C40.6102 78.428 41.0391 78.8958 41.0391 79.8313V83.7873H40.4741L40.3957 82.8954H40.3627C40.349 82.9282 40.316 82.9854 40.2637 83.0672C40.2142 83.1491 40.1647 83.2213 40.1152 83.2841C40.0657 83.3441 40.0011 83.4109 39.9214 83.4845C39.8417 83.5582 39.7578 83.6223 39.6698 83.6768C39.5846 83.7314 39.4828 83.7764 39.3646 83.8118C39.2491 83.85 39.1295 83.8691 39.0057 83.8691C38.7473 83.8691 38.5548 83.8514 38.4283 83.8159Z" fill="white"/>
<path d="M42.4228 83.7873V80.4204H43.1075V83.7873H42.4228ZM42.4228 79.0662V78.4894C43.0635 78.4485 43.6492 78.428 44.1799 78.428C44.7133 78.428 45.1519 78.5085 45.4956 78.6694C45.8393 78.8276 46.0772 79.0894 46.2091 79.4549C46.2779 79.6458 46.3123 79.8626 46.3123 80.1054V83.7873H45.6276V80.0972C45.6276 79.369 45.1354 79.0049 44.151 79.0049C43.7166 79.0049 43.2367 79.0199 42.7115 79.0499L42.4228 79.0662Z" fill="white"/>
<path d="M47.3247 79.0376V77.4298H48.0094V78.5099H50.81V79.0376L50.0964 81.7377L49.6675 83.7873H48.9745L49.4035 81.7377L50.1253 79.0376H47.3247Z" fill="white"/>
<path d="M53.7135 83.7873V83.2268C53.9142 83.2541 54.0255 83.2677 54.0475 83.2677C54.4407 83.2677 54.6373 83.0359 54.6373 82.5722V79.0826L54.0558 79.1358V78.559C54.8229 78.4717 55.4939 78.428 56.0686 78.428C56.558 78.428 56.9704 78.5058 57.3059 78.6612C57.6579 78.8249 57.8998 79.0894 58.0318 79.4549C58.1006 79.6458 58.1349 79.8626 58.1349 80.1054V83.7873H57.4461V80.0972C57.4461 79.369 56.9553 79.0049 55.9737 79.0049C55.8527 79.0049 55.6355 79.0131 55.322 79.0294V82.4781C55.322 82.9091 55.223 83.2445 55.025 83.4845C54.8271 83.7245 54.5274 83.8445 54.1259 83.8445C54.0049 83.8445 53.8674 83.8254 53.7135 83.7873Z" fill="white"/>
<path d="M59.234 83.7873V83.2595H61.0736C61.1286 83.055 61.1561 82.8013 61.1561 82.4986V79.8885C61.1561 79.5613 61.0846 79.324 60.9416 79.1767C60.8096 79.0431 60.6034 78.9762 60.3229 78.9762C60.1744 78.9762 60.0067 79.0008 59.8197 79.0499V78.514C60.0397 78.4567 60.2858 78.428 60.558 78.428C61.4159 78.428 61.8449 78.8958 61.8449 79.8313V82.4986C61.8449 82.7195 61.8311 82.9377 61.8036 83.1532C61.7789 83.3686 61.7527 83.5282 61.7252 83.6318L61.684 83.7873H59.234Z" fill="white"/>
<path d="M62.9481 80.314C62.9481 80.014 63.0058 79.7413 63.1213 79.4958C63.2396 79.2503 63.3949 79.0526 63.5874 78.9026C63.7799 78.7499 63.993 78.6326 64.2267 78.5508C64.4632 78.469 64.701 78.428 64.9402 78.428C65.1795 78.428 65.4008 78.4608 65.6043 78.5262C65.8078 78.5917 65.9975 78.6967 66.1735 78.8412C66.3494 78.9831 66.4993 79.159 66.623 79.369C66.7495 79.5763 66.8485 79.8326 66.92 80.1381C66.9915 80.4408 67.0272 80.7776 67.0272 81.1486C67.0272 81.5195 66.9915 81.8577 66.92 82.1631C66.8485 82.4659 66.7495 82.7222 66.623 82.9322C66.4993 83.1395 66.3494 83.3154 66.1735 83.46C65.8353 83.7327 65.4283 83.8691 64.9526 83.8691C64.4852 83.8691 64.037 83.8418 63.608 83.7873L63.4018 83.7586V83.1736C63.4045 83.1763 63.4719 83.1873 63.6039 83.2063C64.0383 83.2691 64.4865 83.3004 64.9485 83.3004C65.1575 83.3004 65.3431 83.2609 65.5053 83.1818C65.6675 83.1 65.7981 82.9922 65.8971 82.8586C65.9989 82.725 66.0827 82.5627 66.1487 82.3718C66.2615 82.039 66.3178 81.6313 66.3178 81.1486C66.3178 80.5567 66.2257 80.0644 66.0415 79.6717C65.9425 79.459 65.8009 79.294 65.6167 79.1767C65.4324 79.0567 65.2248 78.9967 64.9939 78.9967C64.7656 78.9967 64.5704 79.0253 64.4082 79.0826C64.2459 79.1372 64.114 79.2094 64.0122 79.2994C63.9132 79.3867 63.8307 79.489 63.7647 79.6063C63.641 79.8244 63.5791 80.0604 63.5791 80.314C63.5791 80.6795 63.6616 80.9563 63.8266 81.1445C63.9943 81.3327 64.2583 81.4595 64.6185 81.5249L64.8 81.5577L64.6886 82.0609L64.5319 82.0404C64.0507 81.9777 63.6658 81.8004 63.377 81.5086C63.0911 81.214 62.9481 80.8158 62.9481 80.314Z" fill="white"/>
<path d="M67.7634 78.5099H68.5429L70.135 81.0504L70.267 81.2345C70.4787 81.109 70.6382 80.899 70.7454 80.6045C70.8554 80.3099 70.9338 79.9226 70.9805 79.4426L71.0712 78.4976H71.7559L71.6734 79.3444C71.6707 79.3717 71.6638 79.4413 71.6528 79.5531C71.6446 79.6622 71.6363 79.7481 71.6281 79.8108C71.6198 79.8735 71.6074 79.9649 71.5909 80.0849C71.5744 80.2022 71.5538 80.3031 71.5291 80.3876C71.5043 80.4695 71.4741 80.5676 71.4383 80.6822C71.4026 80.794 71.3586 80.8936 71.3063 80.9808C71.2541 81.0681 71.195 81.1581 71.129 81.2508C71.0025 81.4254 70.8238 81.5713 70.5928 81.6886L71.7188 83.2595V83.7873H67.8046V83.2595H70.0731L71.0135 83.3045V83.2882L69.64 81.4431L67.7634 78.5099Z" fill="white"/>
<path d="M72.8839 83.7873V78.5099H73.5686V83.7873H72.8839Z" fill="white"/>
<path d="M74.7337 83.7873L75.1214 79.729C75.1214 79.7181 75.1214 79.6881 75.1214 79.639C75.1214 79.5899 75.1021 79.4644 75.0636 79.2626C75.0251 79.0608 74.977 78.8944 74.9193 78.7635L74.812 78.5099H75.5008C75.5751 78.6326 75.6383 78.8181 75.6905 79.0662H75.7194C75.8624 78.8971 76.0343 78.7581 76.235 78.649C76.3395 78.5944 76.477 78.544 76.6474 78.4976C76.8179 78.4512 76.9966 78.428 77.1836 78.428C77.7033 78.428 78.0924 78.5835 78.3509 78.8944C78.6121 79.2053 78.7427 79.6335 78.7427 80.179V83.7873H76.9279V83.2595H78.058V80.2076C78.058 79.4031 77.6868 79.0008 76.9444 79.0008C76.8152 79.0008 76.6873 79.024 76.5608 79.0703C76.4371 79.114 76.3326 79.1672 76.2474 79.2299C76.0659 79.369 75.938 79.489 75.8638 79.5899L75.8143 79.6553L75.4224 83.7873H74.7337Z" fill="white"/>
<path d="M82.0298 83.7873V83.2268C82.2305 83.2541 82.3418 83.2677 82.3638 83.2677C82.7571 83.2677 82.9537 83.0359 82.9537 82.5722V79.0826L82.3721 79.1358V78.559C83.1393 78.4717 83.8102 78.428 84.3849 78.428C84.8743 78.428 85.2868 78.5058 85.6222 78.6612C85.9742 78.8249 86.2161 79.0894 86.3481 79.4549C86.4169 79.6458 86.4512 79.8626 86.4512 80.1054V83.7873H85.7625V80.0972C85.7625 79.369 85.2716 79.0049 84.29 79.0049C84.169 79.0049 83.9518 79.0131 83.6383 79.0294V82.4781C83.6383 82.9091 83.5393 83.2445 83.3414 83.4845C83.1434 83.7245 82.8437 83.8445 82.4422 83.8445C82.3212 83.8445 82.1837 83.8254 82.0298 83.7873Z" fill="white"/>
<path d="M87.4431 83.7177V83.1041C87.8033 83.2186 88.1979 83.2759 88.6269 83.2759C88.7946 83.2759 88.9458 83.2527 89.0805 83.2063C89.218 83.1573 89.3308 83.0959 89.4188 83.0222C89.5095 82.9486 89.5892 82.8586 89.658 82.7522C89.7267 82.6459 89.779 82.5422 89.8147 82.4413C89.8505 82.3404 89.8793 82.2327 89.9013 82.1181C89.9371 81.9463 89.9549 81.7663 89.9549 81.5781V80.7763C89.9549 80.4299 89.9165 80.1408 89.8395 79.909C89.8065 79.8081 89.7556 79.7003 89.6869 79.5858C89.6209 79.4713 89.5425 79.3758 89.4518 79.2994C89.361 79.2231 89.2428 79.159 89.097 79.1072C88.9541 79.0553 88.7808 79.0294 88.5774 79.0294C88.3766 79.0294 88.1787 79.0472 87.9834 79.0826C87.7882 79.1153 87.6493 79.1494 87.5669 79.1849L87.4431 79.2381V78.6326C87.4734 78.6162 87.5174 78.5971 87.5751 78.5753C87.6328 78.5535 87.7621 78.5235 87.9628 78.4853C88.1663 78.4471 88.3835 78.428 88.6145 78.428C88.8455 78.428 89.0586 78.4553 89.2538 78.5099C89.449 78.5644 89.614 78.6381 89.7487 78.7308C89.8862 78.8208 90.0072 78.9299 90.1117 79.0581C90.2189 79.1835 90.3042 79.3144 90.3674 79.4508C90.4334 79.5844 90.487 79.7276 90.5283 79.8804C90.6025 80.1422 90.6396 80.4135 90.6396 80.6945V81.5904C90.6396 81.754 90.6245 81.9313 90.5942 82.1222C90.564 82.3104 90.5241 82.4727 90.4746 82.6091C90.4279 82.7427 90.3523 82.8913 90.2478 83.055C90.1461 83.2186 90.0251 83.3563 89.8848 83.4682C89.7473 83.58 89.5659 83.6754 89.3404 83.7545C89.1149 83.8309 88.8771 83.8691 88.6269 83.8691C88.3766 83.8691 88.1553 83.8568 87.9628 83.8323C87.7731 83.8077 87.6383 83.7818 87.5586 83.7545L87.4431 83.7177Z" fill="white"/>
<path d="M91.285 79.0335V78.4567C91.67 78.4376 92.0151 78.428 92.3203 78.428C92.6255 78.428 92.8785 78.4471 93.0792 78.4853C93.2827 78.5208 93.4724 78.5794 93.6484 78.6612C93.8244 78.7431 93.9728 78.8481 94.0938 78.9762C94.3495 79.2517 94.4774 79.6281 94.4774 80.1054V83.7873H93.7927V80.0972C93.7927 79.369 93.3005 79.0049 92.3162 79.0049C92.0192 79.0049 91.6755 79.0144 91.285 79.0335Z" fill="white"/>
<path d="M95.4816 84V83.4641L97.0943 83.2145L95.8446 78.5099H96.554L97.1892 80.8908C97.2662 81.2399 97.4312 81.9709 97.6841 83.0836C98.4898 82.7891 98.949 82.0322 99.0617 80.8131L99.2679 78.514H99.9526L99.7505 80.8131C99.723 81.1622 99.6708 81.4636 99.5938 81.7172C99.5195 81.9681 99.4412 82.1713 99.3587 82.3268C99.2762 82.4822 99.1648 82.6431 99.0246 82.8095C98.8844 82.9759 98.7235 83.1204 98.542 83.2432C98.3633 83.3659 98.142 83.4763 97.878 83.5745C97.6168 83.6727 97.3267 83.7436 97.0077 83.7873L95.4816 84Z" fill="white"/>
<path d="M100.878 83.7873L101.266 79.729C101.266 79.7181 101.266 79.6881 101.266 79.639C101.266 79.5899 101.247 79.4644 101.208 79.2626C101.17 79.0608 101.122 78.8944 101.064 78.7635L100.957 78.5099H101.646C101.72 78.6326 101.783 78.8181 101.835 79.0662H101.864C102.007 78.8971 102.179 78.7581 102.38 78.649C102.484 78.5944 102.622 78.544 102.792 78.4976C102.963 78.4512 103.141 78.428 103.328 78.428C103.848 78.428 104.237 78.5835 104.496 78.8944C104.757 79.2053 104.888 79.6335 104.888 80.179V83.7873H103.073V83.2595H104.203V80.2076C104.203 79.4031 103.832 79.0008 103.089 79.0008C102.96 79.0008 102.832 79.024 102.706 79.0703C102.582 79.114 102.477 79.1672 102.392 79.2299C102.211 79.369 102.083 79.489 102.009 79.5899L101.959 79.6553L101.567 83.7873H100.878Z" fill="white"/>
<path d="M75.7188 11.6756C74.9325 7.08586 72.4066 3.72349 68.3096 1.5296C66.0726 0.318071 63.5179 -0.192527 60.9825 0.0651313C59.3892 0.204522 57.8413 0.664134 56.4329 1.41597C55.2065 2.09502 54.1013 2.9699 53.1617 4.00544C51.138 6.16286 49.0605 8.27399 47.0126 10.4033C44.7584 12.7413 42.5022 15.0792 40.2441 17.4171C38.8299 18.8703 37.3987 20.2997 36.0453 21.8062C35.3101 22.4785 34.6128 23.1903 33.9564 23.9384C31.6682 26.6219 30.8267 29.7416 31.2468 33.1853C31.5579 35.7341 32.5875 38.0051 34.2167 40.0068C35.5644 41.6771 37.2857 43.0132 39.2443 43.9093C40.8898 44.6932 42.6856 45.1186 44.5107 45.1569C46.3358 45.1951 48.1481 44.8453 49.8256 44.1309C52.1675 43.156 53.7571 41.2847 55.4288 39.5103C55.6437 39.4191 55.6635 39.1652 55.8177 39.0361C56.6365 38.3572 57.3323 37.5577 58.0635 36.7918C59.4409 35.3507 60.8236 33.9152 62.2114 32.4853C64.5232 30.0923 66.8369 27.6996 69.1525 25.3075C70.4903 23.9244 71.8579 22.5721 73.1251 21.1175C73.7756 20.3889 74.3194 19.5728 74.7401 18.6936C75.7884 16.5104 76.1303 14.0591 75.7188 11.6756ZM70.4776 19.8606C68.228 22.1555 65.9959 24.4673 63.7812 26.7958C63.0501 27.5659 62.285 28.3024 61.5736 29.0879C61.3558 29.3278 61.1762 29.3376 60.9004 29.245C58.7594 28.5103 56.779 27.3777 55.0653 25.9079C52.1251 23.439 49.9316 20.3979 48.2119 17.0005C47.9644 16.5109 47.9658 16.5137 47.5571 16.8995C45.2236 19.113 42.8902 21.3256 40.5567 23.5372C40.3488 23.7336 40.0744 23.8627 39.933 24.1292C38.2911 25.7283 36.4328 27.1198 35.1161 29.0388C34.6141 29.7682 34.2676 30.5818 33.9494 31.4655C33.4742 30.7572 33.4374 30.0404 33.5873 29.3123C33.8362 28.0976 34.5122 27.1086 35.3509 26.2263C36.2461 25.2752 37.2233 24.4111 38.086 23.4292C39.076 22.4403 40.0659 21.4556 41.0474 20.4638C43.1772 18.3176 45.317 16.1812 47.4298 14.0182C49.7011 11.7 51.9559 9.36625 54.1941 7.01713C55.0271 6.14743 55.8007 5.2146 56.7921 4.51183C59.3759 2.67984 62.2454 2.36984 65.1827 3.31108C69.3377 4.64088 71.971 7.50809 72.8323 11.7668C73.4517 14.8066 72.7206 17.57 70.4776 19.8606Z" fill="white"/>
</svg>
